<svg enable-background="new 0 0 40 40" viewBox="0 0 40 40" xmlns="http://www.w3.org/2000/svg"><path d="m20 0c-11.046 0-20 8.954-20 20s8.954 20 20 20 20-8.954 20-20-8.954-20-20-20zm13.082 33.082c-3.351 3.349-7.971 5.418-13.082 5.418s-9.731-2.069-13.081-5.418c-3.349-3.351-5.419-7.971-5.419-13.082s2.07-9.731 5.419-13.081c3.35-3.349 7.97-5.419 13.081-5.419s9.731 2.07 13.082 5.419c3.349 3.35 5.418 7.97 5.418 13.081s-2.069 9.731-5.418 13.082zm-13.082-13.078c2.761 0 5-2.239 5-5s-2.239-5-5-5-5 2.239-5 5 2.239 5 5 5zm0-8.5c1.933 0 3.5 1.567 3.5 3.5s-1.567 3.5-3.5 3.5-3.5-1.567-3.5-3.5 1.567-3.5 3.5-3.5zm5.754 10.496h-11.501c-1.242 0-2.249 1.007-2.249 2.249v.578c0 .893.318 1.756.898 2.435 1.566 1.834 3.952 2.739 7.098 2.739 3.145 0 5.533-.905 7.102-2.738.581-.679.901-1.544.901-2.439v-.575c0-1.243-1.007-2.249-2.249-2.249zm.749 2.824c0 .536-.192 1.056-.541 1.463-1.257 1.468-3.224 2.214-5.962 2.214s-4.704-.746-5.958-2.213c-.348-.407-.539-.926-.539-1.461v-.578c0-.414.335-.749.749-.749h11.502c.414 0 .749.335.749.749z" fill="#767676"/></svg>